<svg width="500" height="422" xmlns="http://www.w3.org/2000/svg" xmlns:xlink="http://www.w3.org/1999/xlink" xml:space="preserve" overflow="hidden"><defs><clipPath id="clip0"><rect x="-20" y="370" width="500" height="422"/></clipPath><clipPath id="clip1"><rect x="-20" y="371" width="500" height="421"/></clipPath><clipPath id="clip2"><rect x="-20" y="371" width="500" height="422"/></clipPath><clipPath id="clip3"><rect x="-20" y="371" width="500" height="422"/></clipPath><clipPath id="clip4"><rect x="-20" y="371" width="500" height="421"/></clipPath></defs><g clip-path="url(#clip0)" transform="translate(20 -370)"><g clip-path="url(#clip1)"><g clip-path="url(#clip2)"><g clip-path="url(#clip3)"><g clip-path="url(#clip4)"><path d="M363.888 261.085 363.888 354.856 360.624 354.856 360.624 261.085ZM367.151 353.224 362.256 363.015 357.36 353.224Z" fill="#FF0000" fill-rule="nonzero" fill-opacity="1" transform="matrix(1.00135 0 0 1 -60.305 313.344)"/><path d="M232.477 309.607 252.943 337.065 250.326 339.015 229.861 311.558ZM254.584 333.807 256.51 344.582 246.734 339.657Z" fill="#FF0000" fill-rule="nonzero" fill-opacity="1" transform="matrix(1.00135 0 0 1 -60.305 313.344)"/><path d="M1.14156-1.166 27.9706 25.1007 25.6875 27.4328-1.14156 1.166ZM29.0877 21.6272 32.659 31.9746 22.2384 28.6232Z" fill="#0432FF" fill-rule="nonzero" fill-opacity="1" transform="matrix(-1.00135 0 0 1 183.182 565.182)"/><path d="M115.313 311.671 115.313 354.477 112.049 354.477 112.049 311.671ZM118.576 352.845 113.681 362.635 108.786 352.845Z" fill="#0432FF" fill-rule="nonzero" fill-opacity="1" transform="matrix(1.00135 0 0 1 -60.305 313.344)"/><path d="M309.495 190.919 309.495 212.766 306.231 212.766 306.231 190.919ZM312.758 211.134 307.863 220.925 302.968 211.134Z" fill="#FF0000" fill-rule="nonzero" fill-opacity="1" transform="matrix(1.00135 0 0 1 -60.305 313.344)"/><path d="M1.23649-1.06481 72.1874 81.3253 69.7141 83.4548-1.23649 1.06481ZM73.5956 77.959 76.275 88.5726 66.1764 84.348Z" fill="#0432FF" fill-rule="nonzero" fill-opacity="1" transform="matrix(-1.00135 0 0 1 170.757 509.702)"/><path d="M291.841 107.921 304.581 128.304 301.814 130.034 289.074 109.65ZM306.484 125.19 307.522 136.087 298.182 130.379Z" fill="#FF0000" fill-rule="nonzero" fill-opacity="1" transform="matrix(1.00135 0 0 1 -60.305 313.344)"/><path d="M112.593 109.873 112.593 276.692 109.329 276.692 109.329 109.873ZM115.857 275.06 110.961 284.851 106.066 275.06Z" fill="#0432FF" fill-rule="nonzero" fill-opacity="1" transform="matrix(1.00135 0 0 1 -60.305 313.344)"/><path d="M72.8863 61.4638 402.506 61.4638 402.506 118.576 72.8863 118.576Z" stroke="#000000" stroke-width="1.08786" stroke-linecap="butt" stroke-linejoin="miter" stroke-miterlimit="8" stroke-opacity="1" fill="#FFFFFF" fill-rule="nonzero" fill-opacity="1" transform="matrix(1.00135 0 0 1 -60.305 313.344)"/><text fill="#000000" fill-opacity="1" font-family="Arial,Arial_MSFontService,sans-serif" font-style="normal" font-variant="normal" font-weight="700" font-stretch="normal" font-size="28" text-anchor="start" direction="ltr" writing-mode="lr-tb" unicode-bidi="normal" text-decoration="none" transform="matrix(0.544662 0 0 0.543928 36.6716 391)">VQE on a statevector with various reps</text><text fill="#000000" fill-opacity="1" font-family="Yu Gothic,Yu Gothic_MSFontService,sans-serif" font-style="normal" font-variant="normal" font-weight="700" font-stretch="normal" font-size="28" text-anchor="start" direction="ltr" writing-mode="lr-tb" unicode-bidi="normal" text-decoration="none" transform="matrix(0.544662 0 0 0.543928 43.5507 409)">✓</text><text fill="#000000" fill-opacity="1" font-family="Arial,Arial_MSFontService,sans-serif" font-style="normal" font-variant="normal" font-weight="700" font-stretch="normal" font-size="28" text-anchor="start" direction="ltr" writing-mode="lr-tb" unicode-bidi="normal" text-decoration="none" transform="matrix(0.544662 0 0 0.543928 63.0223 409)">Low</text><text fill="#000000" fill-opacity="1" font-family="Arial,Arial_MSFontService,sans-serif" font-style="normal" font-variant="normal" font-weight="700" font-stretch="normal" font-size="28" text-anchor="start" direction="ltr" writing-mode="lr-tb" unicode-bidi="normal" text-decoration="none" transform="matrix(0.544662 0 0 0.543928 93.3873 409)">-</text><text fill="#000000" fill-opacity="1" font-family="Arial,Arial_MSFontService,sans-serif" font-style="normal" font-variant="normal" font-weight="700" font-stretch="normal" font-size="28" text-anchor="start" direction="ltr" writing-mode="lr-tb" unicode-bidi="normal" text-decoration="none" transform="matrix(0.544662 0 0 0.543928 98.4254 409)">cost optimizer </text><text fill="#000000" fill-opacity="1" font-family="Arial,Arial_MSFontService,sans-serif" font-style="normal" font-variant="normal" font-weight="700" font-stretch="normal" font-size="28" text-anchor="start" direction="ltr" writing-mode="lr-tb" unicode-bidi="normal" text-decoration="none" transform="matrix(0.544662 0 0 0.543928 205.724 409)">(ex. COBYLA)</text><text fill="#000000" fill-opacity="1" font-family="Yu Gothic,Yu Gothic_MSFontService,sans-serif" font-style="normal" font-variant="normal" font-weight="700" font-stretch="normal" font-size="28" text-anchor="start" direction="ltr" writing-mode="lr-tb" unicode-bidi="normal" text-decoration="none" transform="matrix(0.544662 0 0 0.543928 43.5507 427)">✓</text><text fill="#000000" fill-opacity="1" font-family="Arial,Arial_MSFontService,sans-serif" font-style="normal" font-variant="normal" font-weight="700" font-stretch="normal" font-size="28" text-anchor="start" direction="ltr" writing-mode="lr-tb" unicode-bidi="normal" text-decoration="none" transform="matrix(0.544662 0 0 0.543928 58.8012 427)">reps ~ </text><text fill="#000000" fill-opacity="1" font-family="Arial,Arial_MSFontService,sans-serif" font-style="normal" font-variant="normal" font-weight="700" font-stretch="normal" font-size="28" text-anchor="start" direction="ltr" writing-mode="lr-tb" unicode-bidi="normal" text-decoration="none" transform="matrix(0.544662 0 0 0.543928 108.229 427)">number of qubits</text><path d="M73.4302 283.386 324.181 283.386 324.181 345.394 73.4302 345.394Z" stroke="#000000" stroke-width="1.08786" stroke-linecap="butt" stroke-linejoin="miter" stroke-miterlimit="8" stroke-opacity="1" fill="#FFFFFF" fill-rule="nonzero" fill-opacity="1" transform="matrix(1.00135 0 0 1 -60.305 313.344)"/><text fill="#000000" fill-opacity="1" font-family="Arial,Arial_MSFontService,sans-serif" font-style="normal" font-variant="normal" font-weight="700" font-stretch="normal" font-size="28" text-anchor="start" direction="ltr" writing-mode="lr-tb" unicode-bidi="normal" text-decoration="none" transform="matrix(0.544662 0 0 0.543928 74.0441 616)">Required number of </text><text fill="#000000" fill-opacity="1" font-family="Arial,Arial_MSFontService,sans-serif" font-style="normal" font-variant="normal" font-weight="700" font-stretch="normal" font-size="28" text-anchor="start" direction="ltr" writing-mode="lr-tb" unicode-bidi="normal" text-decoration="none" transform="matrix(0.544662 0 0 0.543928 44.4308 633)">measurements and circuit </text><text fill="#000000" fill-opacity="1" font-family="Arial,Arial_MSFontService,sans-serif" font-style="normal" font-variant="normal" font-weight="700" font-stretch="normal" font-size="28" text-anchor="start" direction="ltr" writing-mode="lr-tb" unicode-bidi="normal" text-decoration="none" transform="matrix(0.544662 0 0 0.543928 23.9352 652)">length within acceptable limits?</text><path d="M226.274 137.07 454.18 137.07 454.18 204.517 226.274 204.517Z" stroke="#000000" stroke-width="1.08786" stroke-linecap="butt" stroke-linejoin="miter" stroke-miterlimit="8" stroke-opacity="1" fill="#FFFFFF" fill-rule="nonzero" fill-opacity="1" transform="matrix(1.00135 0 0 1 -60.305 313.344)"/><text fill="#000000" fill-opacity="1" font-family="Arial,Arial_MSFontService,sans-serif" font-style="normal" font-variant="normal" font-weight="700" font-stretch="normal" font-size="28" text-anchor="start" direction="ltr" writing-mode="lr-tb" unicode-bidi="normal" text-decoration="none" transform="matrix(0.544662 0 0 0.543928 195.173 472)">With low</text><text fill="#000000" fill-opacity="1" font-family="Arial,Arial_MSFontService,sans-serif" font-style="normal" font-variant="normal" font-weight="700" font-stretch="normal" font-size="28" text-anchor="start" direction="ltr" writing-mode="lr-tb" unicode-bidi="normal" text-decoration="none" transform="matrix(0.544662 0 0 0.543928 257.536 472)">-</text><text fill="#000000" fill-opacity="1" font-family="Arial,Arial_MSFontService,sans-serif" font-style="normal" font-variant="normal" font-weight="700" font-stretch="normal" font-size="28" text-anchor="start" direction="ltr" writing-mode="lr-tb" unicode-bidi="normal" text-decoration="none" transform="matrix(0.544662 0 0 0.543928 262.575 472)">cost optimizer</text><text fill="#000000" fill-opacity="1" font-family="Yu Gothic,Yu Gothic_MSFontService,sans-serif" font-style="normal" font-variant="normal" font-weight="700" font-stretch="normal" font-size="28" text-anchor="start" direction="ltr" writing-mode="lr-tb" unicode-bidi="normal" text-decoration="none" transform="matrix(0.544662 0 0 0.543928 189.753 489)">✓</text><text fill="#000000" fill-opacity="1" font-family="Arial,Arial_MSFontService,sans-serif" font-style="normal" font-variant="normal" font-weight="700" font-stretch="normal" font-size="28" text-anchor="start" direction="ltr" writing-mode="lr-tb" unicode-bidi="normal" text-decoration="none" transform="matrix(0.544662 0 0 0.543928 205.004 489)">I</text><text fill="#000000" fill-opacity="1" font-family="Arial,Arial_MSFontService,sans-serif" font-style="normal" font-variant="normal" font-weight="700" font-stretch="normal" font-size="28" text-anchor="start" direction="ltr" writing-mode="lr-tb" unicode-bidi="normal" text-decoration="none" transform="matrix(0.544662 0 0 0.543928 209.225 489)">ncrease iteration/reps</text><text fill="#000000" fill-opacity="1" font-family="Yu Gothic,Yu Gothic_MSFontService,sans-serif" font-style="normal" font-variant="normal" font-weight="700" font-stretch="normal" font-size="28" text-anchor="start" direction="ltr" writing-mode="lr-tb" unicode-bidi="normal" text-decoration="none" transform="matrix(0.544662 0 0 0.543928 189.753 508)">✓</text><text fill="#000000" fill-opacity="1" font-family="Arial,Arial_MSFontService,sans-serif" font-style="normal" font-variant="normal" font-weight="700" font-stretch="normal" font-size="28" text-anchor="start" direction="ltr" writing-mode="lr-tb" unicode-bidi="normal" text-decoration="none" transform="matrix(0.544662 0 0 0.543928 205.004 508)">Improve initial state</text><path d="M226.274 219.747 454.18 219.747 454.18 264.893 226.274 264.893Z" stroke="#000000" stroke-width="1.08786" stroke-linecap="butt" stroke-linejoin="miter" stroke-miterlimit="8" stroke-opacity="1" fill="#FFFFFF" fill-rule="nonzero" fill-opacity="1" transform="matrix(1.00135 0 0 1 -60.305 313.344)"/><text fill="#000000" fill-opacity="1" font-family="Arial,Arial_MSFontService,sans-serif" font-style="normal" font-variant="normal" font-weight="700" font-stretch="normal" font-size="28" text-anchor="start" direction="ltr" writing-mode="lr-tb" unicode-bidi="normal" text-decoration="none" transform="matrix(0.544662 0 0 0.543928 201.929 553)">Use high</text><text fill="#000000" fill-opacity="1" font-family="Arial,Arial_MSFontService,sans-serif" font-style="normal" font-variant="normal" font-weight="700" font-stretch="normal" font-size="28" text-anchor="start" direction="ltr" writing-mode="lr-tb" unicode-bidi="normal" text-decoration="none" transform="matrix(0.544662 0 0 0.543928 266.063 553)">-</text><text fill="#000000" fill-opacity="1" font-family="Arial,Arial_MSFontService,sans-serif" font-style="normal" font-variant="normal" font-weight="700" font-stretch="normal" font-size="28" text-anchor="start" direction="ltr" writing-mode="lr-tb" unicode-bidi="normal" text-decoration="none" transform="matrix(0.544662 0 0 0.543928 271.101 553)">cost optimizer</text><text fill="#000000" fill-opacity="1" font-family="Arial,Arial_MSFontService,sans-serif" font-style="normal" font-variant="normal" font-weight="700" font-stretch="normal" font-size="28" text-anchor="start" direction="ltr" writing-mode="lr-tb" unicode-bidi="normal" text-decoration="none" transform="matrix(0.544662 0 0 0.543928 241.836 570)">(ex. Adam)</text><path d="M53.8488 370.94C53.8488 366.144 57.7368 362.256 62.5332 362.256L164.285 362.256C169.081 362.256 172.969 366.144 172.969 370.94L172.969 395.454C172.969 400.25 169.081 404.138 164.285 404.138L62.5332 404.138C57.7368 404.138 53.8488 400.25 53.8488 395.454Z" fill="#0432FF" fill-rule="evenodd" fill-opacity="1" transform="matrix(1.00135 0 0 1 -60.305 313.344)"/><text fill="#FFFFFF" fill-opacity="1" font-family="Arial,Arial_MSFontService,sans-serif" font-style="normal" font-variant="normal" font-weight="700" font-stretch="normal" font-size="28" text-anchor="start" direction="ltr" writing-mode="lr-tb" unicode-bidi="normal" text-decoration="none" transform="matrix(0.544662 0 0 0.543928 28.5049 694)">Ansatz </text><text fill="#FFFFFF" fill-opacity="1" font-family="Arial,Arial_MSFontService,sans-serif" font-style="normal" font-variant="normal" font-weight="700" font-stretch="normal" font-size="28" text-anchor="start" direction="ltr" writing-mode="lr-tb" unicode-bidi="normal" text-decoration="none" transform="matrix(0.544662 0 0 0.543928 22.7859 711)">selected</text><path d="M228.994 372.11C228.994 366.367 233.649 361.712 239.391 361.712L528.635 361.712C534.377 361.712 539.032 366.367 539.032 372.11L539.032 431.815C539.032 437.558 534.377 442.213 528.635 442.213L239.391 442.213C233.649 442.213 228.994 437.558 228.994 431.815Z" fill="#FF0000" fill-rule="evenodd" fill-opacity="1" transform="matrix(1.00135 0 0 1 -60.305 313.344)"/><text fill="#FFFFFF" fill-opacity="1" font-family="Arial,Arial_MSFontService,sans-serif" font-style="normal" font-variant="normal" font-weight="700" font-stretch="normal" font-size="28" text-anchor="start" direction="ltr" writing-mode="lr-tb" unicode-bidi="normal" text-decoration="none" transform="matrix(0.544662 0 0 0.543928 196.765 694)">Ansatz not good enough, so re</text><text fill="#FFFFFF" fill-opacity="1" font-family="Arial,Arial_MSFontService,sans-serif" font-style="normal" font-variant="normal" font-weight="700" font-stretch="normal" font-size="28" text-anchor="start" direction="ltr" writing-mode="lr-tb" unicode-bidi="normal" text-decoration="none" transform="matrix(0.544662 0 0 0.543928 419.395 694)">-</text><text fill="#FFFFFF" fill-opacity="1" font-family="Arial,Arial_MSFontService,sans-serif" font-style="normal" font-variant="normal" font-weight="700" font-stretch="normal" font-size="28" text-anchor="start" direction="ltr" writing-mode="lr-tb" unicode-bidi="normal" text-decoration="none" transform="matrix(0.544662 0 0 0.543928 424.434 694)">select</text><text fill="#FFFFFF" fill-opacity="1" font-family="Yu Gothic,Yu Gothic_MSFontService,sans-serif" font-style="normal" font-variant="normal" font-weight="700" font-stretch="normal" font-size="28" text-anchor="start" direction="ltr" writing-mode="lr-tb" unicode-bidi="normal" text-decoration="none" transform="matrix(0.544662 0 0 0.543928 203.235 711)">✓</text><text fill="#FFFFFF" fill-opacity="1" font-family="Arial,Arial_MSFontService,sans-serif" font-style="normal" font-variant="normal" font-weight="700" font-stretch="normal" font-size="28" text-anchor="start" direction="ltr" writing-mode="lr-tb" unicode-bidi="normal" text-decoration="none" transform="matrix(0.544662 0 0 0.543928 218.486 711)">Not spanning a solution </text><text fill="#FFFFFF" fill-opacity="1" font-family="Arial,Arial_MSFontService,sans-serif" font-style="normal" font-variant="normal" font-weight="700" font-stretch="normal" font-size="28" text-anchor="start" direction="ltr" writing-mode="lr-tb" unicode-bidi="normal" text-decoration="none" transform="matrix(0.544662 0 0 0.543928 225.839 730)">(inadequate expression)</text><text fill="#FFFFFF" fill-opacity="1" font-family="Yu Gothic,Yu Gothic_MSFontService,sans-serif" font-style="normal" font-variant="normal" font-weight="700" font-stretch="normal" font-size="28" text-anchor="start" direction="ltr" writing-mode="lr-tb" unicode-bidi="normal" text-decoration="none" transform="matrix(0.544662 0 0 0.543928 203.235 747)">✓</text><text fill="#FFFFFF" fill-opacity="1" font-family="Arial,Arial_MSFontService,sans-serif" font-style="normal" font-variant="normal" font-weight="700" font-stretch="normal" font-size="28" text-anchor="start" direction="ltr" writing-mode="lr-tb" unicode-bidi="normal" text-decoration="none" transform="matrix(0.544662 0 0 0.543928 222.707 747)">Difficult to reach the solution</text><path d="M40.2506 429.703 78.8679 429.703 78.8679 432.966 40.2506 432.966ZM77.2361 426.439 87.0268 431.335 77.2361 436.23Z" fill="#0432FF" fill-rule="nonzero" fill-opacity="1" transform="matrix(1.00135 0 0 1 -60.305 313.344)"/><text fill="#0432FF" fill-opacity="1" font-family="Arial,Arial_MSFontService,sans-serif" font-style="normal" font-variant="normal" font-weight="700" font-stretch="normal" font-size="32" text-anchor="start" direction="ltr" writing-mode="lr-tb" unicode-bidi="normal" text-decoration="none" transform="matrix(0.544662 0 0 0.543928 36.1688 750)">Success</text><text fill="#0432FF" fill-opacity="1" font-family="Arial,Arial_MSFontService,sans-serif" font-style="normal" font-variant="normal" font-weight="700" font-stretch="normal" font-size="32" text-anchor="start" direction="ltr" writing-mode="lr-tb" unicode-bidi="normal" text-decoration="none" transform="matrix(0.544662 0 0 0.543928 111.605 750)">/ YES</text><path d="M40.7946 455.811 79.4118 455.811 79.4118 459.075 40.7946 459.075ZM77.78 452.548 87.5707 457.443 77.78 462.339Z" fill="#FF0000" fill-rule="nonzero" fill-opacity="1" transform="matrix(1.00135 0 0 1 -60.305 313.344)"/><text fill="#FF0000" fill-opacity="1" font-family="Arial,Arial_MSFontService,sans-serif" font-style="normal" font-variant="normal" font-weight="700" font-stretch="normal" font-size="32" text-anchor="start" direction="ltr" writing-mode="lr-tb" unicode-bidi="normal" text-decoration="none" transform="matrix(0.544662 0 0 0.543928 36.4581 777)">Failure</text><text fill="#FF0000" fill-opacity="1" font-family="Arial,Arial_MSFontService,sans-serif" font-style="normal" font-variant="normal" font-weight="700" font-stretch="normal" font-size="32" text-anchor="start" direction="ltr" writing-mode="lr-tb" unicode-bidi="normal" text-decoration="none" transform="matrix(0.544662 0 0 0.543928 98.5496 777)">/ NO</text><text fill="#000000" fill-opacity="1" font-family="Arial,Arial_MSFontService,sans-serif" font-style="normal" font-variant="normal" font-weight="700" font-stretch="normal" font-size="24" text-anchor="start" direction="ltr" writing-mode="lr-tb" unicode-bidi="normal" text-decoration="none" transform="matrix(0.544662 0 0 0.543928 15.9194 389)">(</text><text fill="#000000" fill-opacity="1" font-family="Arial,Arial_MSFontService,sans-serif" font-style="normal" font-variant="normal" font-weight="700" font-stretch="normal" font-size="24" text-anchor="start" direction="ltr" writing-mode="lr-tb" unicode-bidi="normal" text-decoration="none" transform="matrix(0.544662 0 0 0.543928 20.2767 389)">i</text><text fill="#000000" fill-opacity="1" font-family="Arial,Arial_MSFontService,sans-serif" font-style="normal" font-variant="normal" font-weight="700" font-stretch="normal" font-size="24" text-anchor="start" direction="ltr" writing-mode="lr-tb" unicode-bidi="normal" text-decoration="none" transform="matrix(0.544662 0 0 0.543928 23.9532 389)">)</text><text fill="#000000" fill-opacity="1" font-family="Arial,Arial_MSFontService,sans-serif" font-style="normal" font-variant="normal" font-weight="700" font-stretch="normal" font-size="24" text-anchor="start" direction="ltr" writing-mode="lr-tb" unicode-bidi="normal" text-decoration="none" transform="matrix(0.544662 0 0 0.543928 169.65 465)">(ii)</text><text fill="#000000" fill-opacity="1" font-family="Arial,Arial_MSFontService,sans-serif" font-style="normal" font-variant="normal" font-weight="700" font-stretch="normal" font-size="24" text-anchor="start" direction="ltr" writing-mode="lr-tb" unicode-bidi="normal" text-decoration="none" transform="matrix(0.544662 0 0 0.543928 169.379 548)">(iii)</text><text fill="#000000" fill-opacity="1" font-family="Arial,Arial_MSFontService,sans-serif" font-style="normal" font-variant="normal" font-weight="700" font-stretch="normal" font-size="24" text-anchor="start" direction="ltr" writing-mode="lr-tb" unicode-bidi="normal" text-decoration="none" transform="matrix(0.544662 0 0 0.543928 15.9194 610)">(iv)</text><text fill="#FFFFFF" fill-opacity="1" font-family="Arial,Arial_MSFontService,sans-serif" font-style="normal" font-variant="normal" font-weight="700" font-stretch="normal" font-size="24" text-anchor="start" direction="ltr" writing-mode="lr-tb" unicode-bidi="normal" text-decoration="none" transform="matrix(0.544662 0 0 0.543928 -3.72549 689)">(A)</text><text fill="#FFFFFF" fill-opacity="1" font-family="Arial,Arial_MSFontService,sans-serif" font-style="normal" font-variant="normal" font-weight="700" font-stretch="normal" font-size="24" text-anchor="start" direction="ltr" writing-mode="lr-tb" unicode-bidi="normal" text-decoration="none" transform="matrix(0.544662 0 0 0.543928 173.138 689)">(B)</text></g></g></g></g></g></svg>