<svg width="425" height="400" xmlns="http://www.w3.org/2000/svg" xmlns:xlink="http://www.w3.org/1999/xlink" xml:space="preserve" overflow="hidden"><defs><clipPath id="clip0"><rect x="0" y="24" width="425" height="400"/></clipPath></defs><g clip-path="url(#clip0)" transform="matrix(1 0 0 1 0 -24)"><path d="M205.52 403.823 225.481 430.604 222.928 432.506 202.968 405.726ZM227.081 427.425 228.96 437.935 219.425 433.132Z" fill="#FF0000" fill-rule="nonzero" fill-opacity="1" transform="matrix(1.00141 0 0 1 -18.0625 -133.029)"/><path d="M327.851 329.973 327.851 431.733 324.668 431.733 324.668 329.973ZM331.034 430.141 326.26 439.69 321.485 430.141Z" fill="#FF0000" fill-rule="nonzero" fill-opacity="1" transform="matrix(1.00141 0 0 1 -18.0625 -133.029)"/><path d="M1.11339-1.13723 27.2803 24.4813 25.0535 26.7558-1.11339 1.13723ZM28.3699 21.0935 31.8531 31.1855 21.6895 27.9168Z" fill="#0432FF" fill-rule="nonzero" fill-opacity="1" transform="matrix(-1.00141 0 0 1 198.179 213.92)"/><path d="M91.2467 403.714 91.2467 445.463 88.0637 445.463 88.0637 403.714ZM94.4297 443.872 89.6552 453.421 84.8806 443.872Z" fill="#0432FF" fill-rule="nonzero" fill-opacity="1" transform="matrix(1.00141 0 0 1 -18.0625 -133.029)"/><path d="M281.167 288.064 281.167 309.372 277.984 309.372 277.984 288.064ZM284.35 307.78 279.576 317.329 274.801 307.781Z" fill="#FF0000" fill-rule="nonzero" fill-opacity="1" transform="matrix(1.00141 0 0 1 -18.0625 -133.029)"/><path d="M1.20597-1.03853 70.4058 79.3183 67.9936 81.3952-1.20597 1.03853ZM71.7793 76.035 74.3926 86.3867 64.5432 82.2663Z" fill="#0432FF" fill-rule="nonzero" fill-opacity="1" transform="matrix(-1.00141 0 0 1 186.06 159.809)"/><path d="M263.419 207.114 275.844 226.994 273.145 228.681 260.719 208.801ZM277.7 223.958 278.712 234.586 269.603 229.019Z" fill="#FF0000" fill-rule="nonzero" fill-opacity="1" transform="matrix(1.00141 0 0 1 -18.0625 -133.029)"/><path d="M88.5942 208.488 88.5942 371.189 85.4111 371.189 85.4111 208.488ZM91.7772 369.598 87.0027 379.147 82.2281 369.598Z" fill="#0432FF" fill-rule="nonzero" fill-opacity="1" transform="matrix(1.00141 0 0 1 -18.0625 -133.029)"/><path d="M49.8674 161.804 352.255 161.804 352.255 216.976 49.8674 216.976Z" stroke="#000000" stroke-width="1.06101" stroke-linecap="butt" stroke-linejoin="miter" stroke-miterlimit="8" stroke-opacity="1" fill="#FFFFFF" fill-rule="nonzero" fill-opacity="1" transform="matrix(1.00141 0 0 1 -18.0625 -133.029)"/><text fill="#000000" fill-opacity="1" font-family="Arial,Arial_MSFontService,sans-serif" font-style="normal" font-variant="normal" font-weight="700" font-stretch="normal" font-size="28" text-anchor="start" direction="ltr" writing-mode="lr-tb" unicode-bidi="normal" text-decoration="none" transform="matrix(0.53125 0 0 0.530504 75.2457 44)">reps</text><text fill="#000000" fill-opacity="1" font-family="Yu Gothic,Yu Gothic_MSFontService,sans-serif" font-style="normal" font-variant="normal" font-weight="700" font-stretch="normal" font-size="28" text-anchor="start" direction="ltr" writing-mode="lr-tb" unicode-bidi="normal" text-decoration="none" transform="matrix(0.53125 0 0 0.530504 106.589 44)">を</text><text fill="#000000" fill-opacity="1" font-family="Yu Gothic,Yu Gothic_MSFontService,sans-serif" font-style="normal" font-variant="normal" font-weight="700" font-stretch="normal" font-size="28" text-anchor="start" direction="ltr" writing-mode="lr-tb" unicode-bidi="normal" text-decoration="none" transform="matrix(0.53125 0 0 0.530504 121.464 44)">振</text><text fill="#000000" fill-opacity="1" font-family="Yu Gothic,Yu Gothic_MSFontService,sans-serif" font-style="normal" font-variant="normal" font-weight="700" font-stretch="normal" font-size="28" text-anchor="start" direction="ltr" writing-mode="lr-tb" unicode-bidi="normal" text-decoration="none" transform="matrix(0.53125 0 0 0.530504 136.339 44)">って</text><text fill="#000000" fill-opacity="1" font-family="Arial,Arial_MSFontService,sans-serif" font-style="normal" font-variant="normal" font-weight="700" font-stretch="normal" font-size="28" text-anchor="start" direction="ltr" writing-mode="lr-tb" unicode-bidi="normal" text-decoration="none" transform="matrix(0.53125 0 0 0.530504 166.089 44)">statevector</text><text fill="#000000" fill-opacity="1" font-family="Yu Gothic,Yu Gothic_MSFontService,sans-serif" font-style="normal" font-variant="normal" font-weight="700" font-stretch="normal" font-size="28" text-anchor="start" direction="ltr" writing-mode="lr-tb" unicode-bidi="normal" text-decoration="none" transform="matrix(0.53125 0 0 0.530504 245.113 44)">で</text><text fill="#000000" fill-opacity="1" font-family="Arial,Arial_MSFontService,sans-serif" font-style="normal" font-variant="normal" font-weight="700" font-stretch="normal" font-size="28" text-anchor="start" direction="ltr" writing-mode="lr-tb" unicode-bidi="normal" text-decoration="none" transform="matrix(0.53125 0 0 0.530504 259.988 44)">VQE</text><text fill="#000000" fill-opacity="1" font-family="Yu Gothic,Yu Gothic_MSFontService,sans-serif" font-style="normal" font-variant="normal" font-weight="700" font-stretch="normal" font-size="28" text-anchor="start" direction="ltr" writing-mode="lr-tb" unicode-bidi="normal" text-decoration="none" transform="matrix(0.53125 0 0 0.530504 62.0973 62)">✓低</text><text fill="#000000" fill-opacity="1" font-family="Yu Gothic,Yu Gothic_MSFontService,sans-serif" font-style="normal" font-variant="normal" font-weight="700" font-stretch="normal" font-size="28" text-anchor="start" direction="ltr" writing-mode="lr-tb" unicode-bidi="normal" text-decoration="none" transform="matrix(0.53125 0 0 0.530504 91.8473 62)">コスト</text><text fill="#000000" fill-opacity="1" font-family="Arial,Arial_MSFontService,sans-serif" font-style="normal" font-variant="normal" font-weight="700" font-stretch="normal" font-size="28" text-anchor="start" direction="ltr" writing-mode="lr-tb" unicode-bidi="normal" text-decoration="none" transform="matrix(0.53125 0 0 0.530504 136.472 62)">optimizer (ex. COBYLA)</text><text fill="#000000" fill-opacity="1" font-family="Yu Gothic,Yu Gothic_MSFontService,sans-serif" font-style="normal" font-variant="normal" font-weight="700" font-stretch="normal" font-size="28" text-anchor="start" direction="ltr" writing-mode="lr-tb" unicode-bidi="normal" text-decoration="none" transform="matrix(0.53125 0 0 0.530504 62.0973 80)">✓</text><text fill="#000000" fill-opacity="1" font-family="Arial,Arial_MSFontService,sans-serif" font-style="normal" font-variant="normal" font-weight="700" font-stretch="normal" font-size="28" text-anchor="start" direction="ltr" writing-mode="lr-tb" unicode-bidi="normal" text-decoration="none" transform="matrix(0.53125 0 0 0.530504 76.9723 80)">reps ~ qubit</text><text fill="#000000" fill-opacity="1" font-family="Yu Gothic,Yu Gothic_MSFontService,sans-serif" font-style="normal" font-variant="normal" font-weight="700" font-stretch="normal" font-size="28" text-anchor="start" direction="ltr" writing-mode="lr-tb" unicode-bidi="normal" text-decoration="none" transform="matrix(0.53125 0 0 0.530504 161.308 80)">数</text><path d="M50.3979 377.188 262.069 377.188 262.069 420.159 50.3979 420.159Z" stroke="#000000" stroke-width="1.06101" stroke-linecap="butt" stroke-linejoin="miter" stroke-miterlimit="8" stroke-opacity="1" fill="#FFFFFF" fill-rule="nonzero" fill-opacity="1" transform="matrix(1.00141 0 0 1 -18.0625 -133.029)"/><text fill="#000000" fill-opacity="1" font-family="Yu Gothic,Yu Gothic_MSFontService,sans-serif" font-style="normal" font-variant="normal" font-weight="700" font-stretch="normal" font-size="28" text-anchor="start" direction="ltr" writing-mode="lr-tb" unicode-bidi="normal" text-decoration="none" transform="matrix(0.53125 0 0 0.530504 56.7508 262)">必要</text><text fill="#000000" fill-opacity="1" font-family="Yu Gothic,Yu Gothic_MSFontService,sans-serif" font-style="normal" font-variant="normal" font-weight="700" font-stretch="normal" font-size="28" text-anchor="start" direction="ltr" writing-mode="lr-tb" unicode-bidi="normal" text-decoration="none" transform="matrix(0.53125 0 0 0.530504 86.5008 262)">な</text><text fill="#000000" fill-opacity="1" font-family="Yu Gothic,Yu Gothic_MSFontService,sans-serif" font-style="normal" font-variant="normal" font-weight="700" font-stretch="normal" font-size="28" text-anchor="start" direction="ltr" writing-mode="lr-tb" unicode-bidi="normal" text-decoration="none" transform="matrix(0.53125 0 0 0.530504 101.376 262)">測定回数・回路長</text><text fill="#000000" fill-opacity="1" font-family="Yu Gothic,Yu Gothic_MSFontService,sans-serif" font-style="normal" font-variant="normal" font-weight="700" font-stretch="normal" font-size="28" text-anchor="start" direction="ltr" writing-mode="lr-tb" unicode-bidi="normal" text-decoration="none" transform="matrix(0.53125 0 0 0.530504 220.376 262)">は</text><text fill="#000000" fill-opacity="1" font-family="Yu Gothic,Yu Gothic_MSFontService,sans-serif" font-style="normal" font-variant="normal" font-weight="700" font-stretch="normal" font-size="28" text-anchor="start" direction="ltr" writing-mode="lr-tb" unicode-bidi="normal" text-decoration="none" transform="matrix(0.53125 0 0 0.530504 96.8602 280)">許容範囲内</text><text fill="#000000" fill-opacity="1" font-family="Arial,Arial_MSFontService,sans-serif" font-style="normal" font-variant="normal" font-weight="700" font-stretch="normal" font-size="28" text-anchor="start" direction="ltr" writing-mode="lr-tb" unicode-bidi="normal" text-decoration="none" transform="matrix(0.53125 0 0 0.530504 171.235 280)">?</text><path d="M200 235.013 403.714 235.013 403.714 300.796 200 300.796Z" stroke="#000000" stroke-width="1.06101" stroke-linecap="butt" stroke-linejoin="miter" stroke-miterlimit="8" stroke-opacity="1" fill="#FFFFFF" fill-rule="nonzero" fill-opacity="1" transform="matrix(1.00141 0 0 1 -18.0625 -133.029)"/><text fill="#000000" fill-opacity="1" font-family="Yu Gothic,Yu Gothic_MSFontService,sans-serif" font-style="normal" font-variant="normal" font-weight="700" font-stretch="normal" font-size="28" text-anchor="start" direction="ltr" writing-mode="lr-tb" unicode-bidi="normal" text-decoration="none" transform="matrix(0.53125 0 0 0.530504 213.838 122)">低</text><text fill="#000000" fill-opacity="1" font-family="Yu Gothic,Yu Gothic_MSFontService,sans-serif" font-style="normal" font-variant="normal" font-weight="700" font-stretch="normal" font-size="28" text-anchor="start" direction="ltr" writing-mode="lr-tb" unicode-bidi="normal" text-decoration="none" transform="matrix(0.53125 0 0 0.530504 228.713 122)">コスト</text><text fill="#000000" fill-opacity="1" font-family="Arial,Arial_MSFontService,sans-serif" font-style="normal" font-variant="normal" font-weight="700" font-stretch="normal" font-size="28" text-anchor="start" direction="ltr" writing-mode="lr-tb" unicode-bidi="normal" text-decoration="none" transform="matrix(0.53125 0 0 0.530504 273.338 122)">optimizer</text><text fill="#000000" fill-opacity="1" font-family="Yu Gothic,Yu Gothic_MSFontService,sans-serif" font-style="normal" font-variant="normal" font-weight="700" font-stretch="normal" font-size="28" text-anchor="start" direction="ltr" writing-mode="lr-tb" unicode-bidi="normal" text-decoration="none" transform="matrix(0.53125 0 0 0.530504 339.345 122)">で</text><text fill="#000000" fill-opacity="1" font-family="Yu Gothic,Yu Gothic_MSFontService,sans-serif" font-style="normal" font-variant="normal" font-weight="700" font-stretch="normal" font-size="28" text-anchor="start" direction="ltr" writing-mode="lr-tb" unicode-bidi="normal" text-decoration="none" transform="matrix(0.53125 0 0 0.530504 197.528 140)">✓</text><text fill="#000000" fill-opacity="1" font-family="Arial,Arial_MSFontService,sans-serif" font-style="normal" font-variant="normal" font-weight="700" font-stretch="normal" font-size="28" text-anchor="start" direction="ltr" writing-mode="lr-tb" unicode-bidi="normal" text-decoration="none" transform="matrix(0.53125 0 0 0.530504 212.403 140)">iteration</text><text fill="#000000" fill-opacity="1" font-family="Yu Gothic,Yu Gothic_MSFontService,sans-serif" font-style="normal" font-variant="normal" font-weight="700" font-stretch="normal" font-size="28" text-anchor="start" direction="ltr" writing-mode="lr-tb" unicode-bidi="normal" text-decoration="none" transform="matrix(0.53125 0 0 0.530504 270.841 140)">・</text><text fill="#000000" fill-opacity="1" font-family="Arial,Arial_MSFontService,sans-serif" font-style="normal" font-variant="normal" font-weight="700" font-stretch="normal" font-size="28" text-anchor="start" direction="ltr" writing-mode="lr-tb" unicode-bidi="normal" text-decoration="none" transform="matrix(0.53125 0 0 0.530504 285.716 140)">reps</text><text fill="#000000" fill-opacity="1" font-family="Yu Gothic,Yu Gothic_MSFontService,sans-serif" font-style="normal" font-variant="normal" font-weight="700" font-stretch="normal" font-size="28" text-anchor="start" direction="ltr" writing-mode="lr-tb" unicode-bidi="normal" text-decoration="none" transform="matrix(0.53125 0 0 0.530504 317.06 140)">を</text><text fill="#000000" fill-opacity="1" font-family="Yu Gothic,Yu Gothic_MSFontService,sans-serif" font-style="normal" font-variant="normal" font-weight="700" font-stretch="normal" font-size="28" text-anchor="start" direction="ltr" writing-mode="lr-tb" unicode-bidi="normal" text-decoration="none" transform="matrix(0.53125 0 0 0.530504 331.935 140)">増</text><text fill="#000000" fill-opacity="1" font-family="Yu Gothic,Yu Gothic_MSFontService,sans-serif" font-style="normal" font-variant="normal" font-weight="700" font-stretch="normal" font-size="28" text-anchor="start" direction="ltr" writing-mode="lr-tb" unicode-bidi="normal" text-decoration="none" transform="matrix(0.53125 0 0 0.530504 346.81 140)">やす</text><text fill="#000000" fill-opacity="1" font-family="Yu Gothic,Yu Gothic_MSFontService,sans-serif" font-style="normal" font-variant="normal" font-weight="700" font-stretch="normal" font-size="28" text-anchor="start" direction="ltr" writing-mode="lr-tb" unicode-bidi="normal" text-decoration="none" transform="matrix(0.53125 0 0 0.530504 197.528 158)">✓初期状態</text><text fill="#000000" fill-opacity="1" font-family="Yu Gothic,Yu Gothic_MSFontService,sans-serif" font-style="normal" font-variant="normal" font-weight="700" font-stretch="normal" font-size="28" text-anchor="start" direction="ltr" writing-mode="lr-tb" unicode-bidi="normal" text-decoration="none" transform="matrix(0.53125 0 0 0.530504 271.903 158)">を</text><text fill="#000000" fill-opacity="1" font-family="Yu Gothic,Yu Gothic_MSFontService,sans-serif" font-style="normal" font-variant="normal" font-weight="700" font-stretch="normal" font-size="28" text-anchor="start" direction="ltr" writing-mode="lr-tb" unicode-bidi="normal" text-decoration="none" transform="matrix(0.53125 0 0 0.530504 286.778 158)">工夫</text><path d="M200 316.18 403.714 316.18 403.714 359.682 200 359.682Z" stroke="#000000" stroke-width="1.06101" stroke-linecap="butt" stroke-linejoin="miter" stroke-miterlimit="8" stroke-opacity="1" fill="#FFFFFF" fill-rule="nonzero" fill-opacity="1" transform="matrix(1.00141 0 0 1 -18.0625 -133.029)"/><text fill="#000000" fill-opacity="1" font-family="Yu Gothic,Yu Gothic_MSFontService,sans-serif" font-style="normal" font-variant="normal" font-weight="700" font-stretch="normal" font-size="28" text-anchor="start" direction="ltr" writing-mode="lr-tb" unicode-bidi="normal" text-decoration="none" transform="matrix(0.53125 0 0 0.530504 206.456 201)">高</text><text fill="#000000" fill-opacity="1" font-family="Yu Gothic,Yu Gothic_MSFontService,sans-serif" font-style="normal" font-variant="normal" font-weight="700" font-stretch="normal" font-size="28" text-anchor="start" direction="ltr" writing-mode="lr-tb" unicode-bidi="normal" text-decoration="none" transform="matrix(0.53125 0 0 0.530504 221.331 201)">コスト</text><text fill="#000000" fill-opacity="1" font-family="Arial,Arial_MSFontService,sans-serif" font-style="normal" font-variant="normal" font-weight="700" font-stretch="normal" font-size="28" text-anchor="start" direction="ltr" writing-mode="lr-tb" unicode-bidi="normal" text-decoration="none" transform="matrix(0.53125 0 0 0.530504 265.957 201)">optimizer</text><text fill="#000000" fill-opacity="1" font-family="Yu Gothic,Yu Gothic_MSFontService,sans-serif" font-style="normal" font-variant="normal" font-weight="700" font-stretch="normal" font-size="28" text-anchor="start" direction="ltr" writing-mode="lr-tb" unicode-bidi="normal" text-decoration="none" transform="matrix(0.53125 0 0 0.530504 331.964 201)">を</text><text fill="#000000" fill-opacity="1" font-family="Yu Gothic,Yu Gothic_MSFontService,sans-serif" font-style="normal" font-variant="normal" font-weight="700" font-stretch="normal" font-size="28" text-anchor="start" direction="ltr" writing-mode="lr-tb" unicode-bidi="normal" text-decoration="none" transform="matrix(0.53125 0 0 0.530504 346.839 201)">使</text><text fill="#000000" fill-opacity="1" font-family="Yu Gothic,Yu Gothic_MSFontService,sans-serif" font-style="normal" font-variant="normal" font-weight="700" font-stretch="normal" font-size="28" text-anchor="start" direction="ltr" writing-mode="lr-tb" unicode-bidi="normal" text-decoration="none" transform="matrix(0.53125 0 0 0.530504 361.714 201)">う</text><text fill="#000000" fill-opacity="1" font-family="Arial,Arial_MSFontService,sans-serif" font-style="normal" font-variant="normal" font-weight="700" font-stretch="normal" font-size="28" text-anchor="start" direction="ltr" writing-mode="lr-tb" unicode-bidi="normal" text-decoration="none" transform="matrix(0.53125 0 0 0.530504 246.444 219)">(ex. Adam)</text><path d="M22.8117 459.612C22.8117 456.574 25.2741 454.111 28.3117 454.111L156.834 454.111C159.872 454.111 162.334 456.574 162.334 459.612L162.334 475.136C162.334 478.174 159.872 480.637 156.834 480.637L28.3117 480.637C25.2741 480.637 22.8117 478.174 22.8117 475.136Z" fill="#0432FF" fill-rule="evenodd" fill-opacity="1" transform="matrix(1.00141 0 0 1 -18.0625 -133.029)"/><text fill="#FFFFFF" fill-opacity="1" font-family="Yu Gothic,Yu Gothic_MSFontService,sans-serif" font-style="normal" font-variant="normal" font-weight="700" font-stretch="normal" font-size="28" text-anchor="start" direction="ltr" writing-mode="lr-tb" unicode-bidi="normal" text-decoration="none" transform="matrix(0.53125 0 0 0.530504 28.1847 339)">アンザッツ</text><text fill="#FFFFFF" fill-opacity="1" font-family="Yu Gothic,Yu Gothic_MSFontService,sans-serif" font-style="normal" font-variant="normal" font-weight="700" font-stretch="normal" font-size="28" text-anchor="start" direction="ltr" writing-mode="lr-tb" unicode-bidi="normal" text-decoration="none" transform="matrix(0.53125 0 0 0.530504 102.56 339)">決定</text><path d="M170.822 445.34C170.822 441.102 174.258 437.666 178.497 437.666L434.766 437.666C439.004 437.666 442.44 441.102 442.44 445.34L442.44 489.408C442.44 493.646 439.004 497.082 434.766 497.082L178.497 497.082C174.258 497.082 170.822 493.646 170.822 489.408Z" fill="#FF0000" fill-rule="evenodd" fill-opacity="1" transform="matrix(1.00141 0 0 1 -18.0625 -133.029)"/><text fill="#FFFFFF" fill-opacity="1" font-family="Yu Gothic,Yu Gothic_MSFontService,sans-serif" font-style="normal" font-variant="normal" font-weight="700" font-stretch="normal" font-size="28" text-anchor="start" direction="ltr" writing-mode="lr-tb" unicode-bidi="normal" text-decoration="none" transform="matrix(0.53125 0 0 0.530504 177.519 322)">アンザッツ</text><text fill="#FFFFFF" fill-opacity="1" font-family="Yu Gothic,Yu Gothic_MSFontService,sans-serif" font-style="normal" font-variant="normal" font-weight="700" font-stretch="normal" font-size="28" text-anchor="start" direction="ltr" writing-mode="lr-tb" unicode-bidi="normal" text-decoration="none" transform="matrix(0.53125 0 0 0.530504 251.894 322)">が</text><text fill="#FFFFFF" fill-opacity="1" font-family="Yu Gothic,Yu Gothic_MSFontService,sans-serif" font-style="normal" font-variant="normal" font-weight="700" font-stretch="normal" font-size="28" text-anchor="start" direction="ltr" writing-mode="lr-tb" unicode-bidi="normal" text-decoration="none" transform="matrix(0.53125 0 0 0.530504 266.769 322)">良</text><text fill="#FFFFFF" fill-opacity="1" font-family="Yu Gothic,Yu Gothic_MSFontService,sans-serif" font-style="normal" font-variant="normal" font-weight="700" font-stretch="normal" font-size="28" text-anchor="start" direction="ltr" writing-mode="lr-tb" unicode-bidi="normal" text-decoration="none" transform="matrix(0.53125 0 0 0.530504 281.644 322)">くないので</text><text fill="#FFFFFF" fill-opacity="1" font-family="Yu Gothic,Yu Gothic_MSFontService,sans-serif" font-style="normal" font-variant="normal" font-weight="700" font-stretch="normal" font-size="28" text-anchor="start" direction="ltr" writing-mode="lr-tb" unicode-bidi="normal" text-decoration="none" transform="matrix(0.53125 0 0 0.530504 356.019 322)">選</text><text fill="#FFFFFF" fill-opacity="1" font-family="Yu Gothic,Yu Gothic_MSFontService,sans-serif" font-style="normal" font-variant="normal" font-weight="700" font-stretch="normal" font-size="28" text-anchor="start" direction="ltr" writing-mode="lr-tb" unicode-bidi="normal" text-decoration="none" transform="matrix(0.53125 0 0 0.530504 370.894 322)">び</text><text fill="#FFFFFF" fill-opacity="1" font-family="Yu Gothic,Yu Gothic_MSFontService,sans-serif" font-style="normal" font-variant="normal" font-weight="700" font-stretch="normal" font-size="28" text-anchor="start" direction="ltr" writing-mode="lr-tb" unicode-bidi="normal" text-decoration="none" transform="matrix(0.53125 0 0 0.530504 385.769 322)">直</text><text fill="#FFFFFF" fill-opacity="1" font-family="Yu Gothic,Yu Gothic_MSFontService,sans-serif" font-style="normal" font-variant="normal" font-weight="700" font-stretch="normal" font-size="28" text-anchor="start" direction="ltr" writing-mode="lr-tb" unicode-bidi="normal" text-decoration="none" transform="matrix(0.53125 0 0 0.530504 400.644 322)">し</text><text fill="#FFFFFF" fill-opacity="1" font-family="Yu Gothic,Yu Gothic_MSFontService,sans-serif" font-style="normal" font-variant="normal" font-weight="700" font-stretch="normal" font-size="28" text-anchor="start" direction="ltr" writing-mode="lr-tb" unicode-bidi="normal" text-decoration="none" transform="matrix(0.53125 0 0 0.530504 177.853 340)">✓解</text><text fill="#FFFFFF" fill-opacity="1" font-family="Yu Gothic,Yu Gothic_MSFontService,sans-serif" font-style="normal" font-variant="normal" font-weight="700" font-stretch="normal" font-size="28" text-anchor="start" direction="ltr" writing-mode="lr-tb" unicode-bidi="normal" text-decoration="none" transform="matrix(0.53125 0 0 0.530504 207.603 340)">を</text><text fill="#FFFFFF" fill-opacity="1" font-family="Yu Gothic,Yu Gothic_MSFontService,sans-serif" font-style="normal" font-variant="normal" font-weight="700" font-stretch="normal" font-size="28" text-anchor="start" direction="ltr" writing-mode="lr-tb" unicode-bidi="normal" text-decoration="none" transform="matrix(0.53125 0 0 0.530504 222.478 340)">張</text><text fill="#FFFFFF" fill-opacity="1" font-family="Yu Gothic,Yu Gothic_MSFontService,sans-serif" font-style="normal" font-variant="normal" font-weight="700" font-stretch="normal" font-size="28" text-anchor="start" direction="ltr" writing-mode="lr-tb" unicode-bidi="normal" text-decoration="none" transform="matrix(0.53125 0 0 0.530504 237.353 340)">っていない</text><text fill="#FFFFFF" fill-opacity="1" font-family="Yu Gothic,Yu Gothic_MSFontService,sans-serif" font-style="normal" font-variant="normal" font-weight="700" font-stretch="normal" font-size="28" text-anchor="start" direction="ltr" writing-mode="lr-tb" unicode-bidi="normal" text-decoration="none" transform="matrix(0.53125 0 0 0.530504 311.728 340)">(</text><text fill="#FFFFFF" fill-opacity="1" font-family="Yu Gothic,Yu Gothic_MSFontService,sans-serif" font-style="normal" font-variant="normal" font-weight="700" font-stretch="normal" font-size="28" text-anchor="start" direction="ltr" writing-mode="lr-tb" unicode-bidi="normal" text-decoration="none" transform="matrix(0.53125 0 0 0.530504 317.705 340)">表現力不足</text><text fill="#FFFFFF" fill-opacity="1" font-family="Yu Gothic,Yu Gothic_MSFontService,sans-serif" font-style="normal" font-variant="normal" font-weight="700" font-stretch="normal" font-size="28" text-anchor="start" direction="ltr" writing-mode="lr-tb" unicode-bidi="normal" text-decoration="none" transform="matrix(0.53125 0 0 0.530504 392.08 340)">)</text><text fill="#FFFFFF" fill-opacity="1" font-family="Yu Gothic,Yu Gothic_MSFontService,sans-serif" font-style="normal" font-variant="normal" font-weight="700" font-stretch="normal" font-size="28" text-anchor="start" direction="ltr" writing-mode="lr-tb" unicode-bidi="normal" text-decoration="none" transform="matrix(0.53125 0 0 0.530504 177.853 358)">✓解</text><text fill="#FFFFFF" fill-opacity="1" font-family="Yu Gothic,Yu Gothic_MSFontService,sans-serif" font-style="normal" font-variant="normal" font-weight="700" font-stretch="normal" font-size="28" text-anchor="start" direction="ltr" writing-mode="lr-tb" unicode-bidi="normal" text-decoration="none" transform="matrix(0.53125 0 0 0.530504 207.603 358)">に</text><text fill="#FFFFFF" fill-opacity="1" font-family="Yu Gothic,Yu Gothic_MSFontService,sans-serif" font-style="normal" font-variant="normal" font-weight="700" font-stretch="normal" font-size="28" text-anchor="start" direction="ltr" writing-mode="lr-tb" unicode-bidi="normal" text-decoration="none" transform="matrix(0.53125 0 0 0.530504 222.478 358)">到達</text><text fill="#FFFFFF" fill-opacity="1" font-family="Yu Gothic,Yu Gothic_MSFontService,sans-serif" font-style="normal" font-variant="normal" font-weight="700" font-stretch="normal" font-size="28" text-anchor="start" direction="ltr" writing-mode="lr-tb" unicode-bidi="normal" text-decoration="none" transform="matrix(0.53125 0 0 0.530504 252.228 358)">するのが</text><text fill="#FFFFFF" fill-opacity="1" font-family="Yu Gothic,Yu Gothic_MSFontService,sans-serif" font-style="normal" font-variant="normal" font-weight="700" font-stretch="normal" font-size="28" text-anchor="start" direction="ltr" writing-mode="lr-tb" unicode-bidi="normal" text-decoration="none" transform="matrix(0.53125 0 0 0.530504 311.728 358)">困難</text><path d="M33.4218 510.875 71.0859 510.875 71.0859 514.058 33.4218 514.058ZM69.4944 507.692 79.0435 512.467 69.4944 517.241Z" fill="#0432FF" fill-rule="nonzero" fill-opacity="1" transform="matrix(1.00141 0 0 1 -18.0625 -133.029)"/><text fill="#0432FF" fill-opacity="1" font-family="Yu Gothic,Yu Gothic_MSFontService,sans-serif" font-style="normal" font-variant="normal" font-weight="700" font-stretch="normal" font-size="32" text-anchor="start" direction="ltr" writing-mode="lr-tb" unicode-bidi="normal" text-decoration="none" transform="matrix(0.53125 0 0 0.530504 70.0713 384)">成功</text><text fill="#0432FF" fill-opacity="1" font-family="Arial,Arial_MSFontService,sans-serif" font-style="normal" font-variant="normal" font-weight="700" font-stretch="normal" font-size="32" text-anchor="start" direction="ltr" writing-mode="lr-tb" unicode-bidi="normal" text-decoration="none" transform="matrix(0.53125 0 0 0.530504 108.853 384)">/ YES</text><path d="M33.4218 535.809 71.0859 535.809 71.0859 538.992 33.4218 538.992ZM69.4944 532.626 79.0435 537.401 69.4944 542.175Z" fill="#FF0000" fill-rule="nonzero" fill-opacity="1" transform="matrix(1.00141 0 0 1 -18.0625 -133.029)"/><text fill="#FF0000" fill-opacity="1" font-family="Yu Gothic,Yu Gothic_MSFontService,sans-serif" font-style="normal" font-variant="normal" font-weight="700" font-stretch="normal" font-size="32" text-anchor="start" direction="ltr" writing-mode="lr-tb" unicode-bidi="normal" text-decoration="none" transform="matrix(0.53125 0 0 0.530504 70.3534 410)">失敗</text><text fill="#FF0000" fill-opacity="1" font-family="Arial,Arial_MSFontService,sans-serif" font-style="normal" font-variant="normal" font-weight="700" font-stretch="normal" font-size="32" text-anchor="start" direction="ltr" writing-mode="lr-tb" unicode-bidi="normal" text-decoration="none" transform="matrix(0.53125 0 0 0.530504 109.135 410)">/ NO</text><text fill="#000000" fill-opacity="1" font-family="Arial,Arial_MSFontService,sans-serif" font-style="normal" font-variant="normal" font-weight="700" font-stretch="normal" font-size="24" text-anchor="start" direction="ltr" writing-mode="lr-tb" unicode-bidi="normal" text-decoration="none" transform="matrix(0.53125 0 0 0.530504 35.147 42)">(</text><text fill="#000000" fill-opacity="1" font-family="Arial,Arial_MSFontService,sans-serif" font-style="normal" font-variant="normal" font-weight="700" font-stretch="normal" font-size="24" text-anchor="start" direction="ltr" writing-mode="lr-tb" unicode-bidi="normal" text-decoration="none" transform="matrix(0.53125 0 0 0.530504 39.397 42)">i</text><text fill="#000000" fill-opacity="1" font-family="Arial,Arial_MSFontService,sans-serif" font-style="normal" font-variant="normal" font-weight="700" font-stretch="normal" font-size="24" text-anchor="start" direction="ltr" writing-mode="lr-tb" unicode-bidi="normal" text-decoration="none" transform="matrix(0.53125 0 0 0.530504 42.9829 42)">)</text><text fill="#000000" fill-opacity="1" font-family="Arial,Arial_MSFontService,sans-serif" font-style="normal" font-variant="normal" font-weight="700" font-stretch="normal" font-size="24" text-anchor="start" direction="ltr" writing-mode="lr-tb" unicode-bidi="normal" text-decoration="none" transform="matrix(0.53125 0 0 0.530504 185.091 116)">(ii)</text><text fill="#000000" fill-opacity="1" font-family="Arial,Arial_MSFontService,sans-serif" font-style="normal" font-variant="normal" font-weight="700" font-stretch="normal" font-size="24" text-anchor="start" direction="ltr" writing-mode="lr-tb" unicode-bidi="normal" text-decoration="none" transform="matrix(0.53125 0 0 0.530504 184.827 197)">(iii)</text><text fill="#000000" fill-opacity="1" font-family="Arial,Arial_MSFontService,sans-serif" font-style="normal" font-variant="normal" font-weight="700" font-stretch="normal" font-size="24" text-anchor="start" direction="ltr" writing-mode="lr-tb" unicode-bidi="normal" text-decoration="none" transform="matrix(0.53125 0 0 0.530504 35.147 258)">(iv)</text><text fill="#FFFFFF" fill-opacity="1" font-family="Arial,Arial_MSFontService,sans-serif" font-style="normal" font-variant="normal" font-weight="700" font-stretch="normal" font-size="24" text-anchor="start" direction="ltr" writing-mode="lr-tb" unicode-bidi="normal" text-decoration="none" transform="matrix(0.53125 0 0 0.530504 7.55746 334)">(A)</text><text fill="#FFFFFF" fill-opacity="1" font-family="Arial,Arial_MSFontService,sans-serif" font-style="normal" font-variant="normal" font-weight="700" font-stretch="normal" font-size="24" text-anchor="start" direction="ltr" writing-mode="lr-tb" unicode-bidi="normal" text-decoration="none" transform="matrix(0.53125 0 0 0.530504 156.618 319)">(B)</text></g></svg>