<svg width="629" height="432" xmlns="http://www.w3.org/2000/svg" xmlns:xlink="http://www.w3.org/1999/xlink" xml:space="preserve" overflow="hidden"><defs><clipPath id="clip0"><rect x="468" y="360" width="629" height="432"/></clipPath><clipPath id="clip1"><rect x="469" y="360" width="628" height="431"/></clipPath><clipPath id="clip2"><rect x="469" y="360" width="628" height="431"/></clipPath><clipPath id="clip3"><rect x="469" y="360" width="628" height="431"/></clipPath><clipPath id="clip4"><rect x="469" y="360" width="628" height="431"/></clipPath></defs><g clip-path="url(#clip0)" transform="translate(-468 -360)"><g clip-path="url(#clip1)"><g clip-path="url(#clip2)"><g clip-path="url(#clip3)"><g clip-path="url(#clip4)"><path d="M312.396 430.471 312.396 440.001 309.219 440.001 309.219 430.471ZM312.396 443.178 312.396 452.709 309.219 452.709 309.219 443.178ZM312.396 455.886 312.396 460.653 309.219 460.653 309.219 455.886ZM315.572 459.065 310.807 468.595 306.042 459.065Z" fill="#FF0000" fill-rule="nonzero" fill-opacity="1" transform="matrix(1.00005 0 0 1 456.292 267.87)"/><path d="M311.337 396.054 311.337 405.585 308.16 405.585 308.16 396.054ZM311.337 408.762 311.337 414.352 308.16 414.352 308.16 408.762ZM314.514 412.764 309.748 422.294 304.983 412.764Z" fill="#FF0000" fill-rule="nonzero" fill-opacity="1" transform="matrix(1.00005 0 0 1 456.292 267.87)"/><path d="M560.724 361.638 560.724 371.168 557.547 371.168 557.547 361.638ZM560.724 374.345 560.724 383.876 557.547 383.876 557.547 374.345ZM560.724 387.053 560.724 396.584 557.547 396.584 557.547 387.053ZM560.724 399.76 560.724 409.291 557.547 409.291 557.547 399.76ZM560.724 412.468 560.724 421.999 557.547 421.999 557.547 412.468ZM560.724 425.176 560.724 434.706 557.547 434.706 557.547 425.176ZM560.724 437.883 560.724 447.414 557.547 447.414 557.547 437.883ZM560.724 450.591 560.724 460.122 557.547 460.122 557.547 450.591ZM563.901 458.678 559.135 468.209 554.37 458.678Z" fill="#FF0000" fill-rule="nonzero" fill-opacity="1" transform="matrix(1.00005 0 0 1 456.292 267.87)"/><path d="M431 312.396 431 321.926 427.823 321.926 427.823 312.396ZM431 325.103 431 333.663 427.823 333.663 427.823 325.103ZM434.177 332.074 429.412 341.605 424.646 332.075Z" fill="#FF0000" fill-rule="nonzero" fill-opacity="1" transform="matrix(1.00005 0 0 1 456.292 267.87)"/><path d="M220.311 426.878 161.456 251.598 164.468 250.586 223.323 425.867ZM158.95 254.115 160.434 243.563 167.985 251.081Z" fill="#0432FF" fill-rule="nonzero" fill-opacity="1" transform="matrix(1.00005 0 0 1 456.292 267.87)"/><path d="M1.07438-1.17 8.09433 5.27629 5.94558 7.61626-1.07438 1.17ZM10.4343 7.42506 17.4543 13.8713 15.3055 16.2113 8.28558 9.76506ZM19.9321 11.8334 23.7289 21.7898 13.4858 18.8534Z" fill="#0432FF" fill-rule="nonzero" fill-opacity="1" transform="matrix(-1.00005 0 0 1 815.732 627.389)"/><path d="M226.139 397.621 175.773 248.947 178.782 247.928 229.149 396.602ZM173.274 251.471 174.73 240.915 182.301 248.413Z" fill="#0432FF" fill-rule="nonzero" fill-opacity="1" transform="matrix(1.00005 0 0 1 456.292 267.87)"/><path d="M315.771 266.461 243.392 246.661 244.23 243.597 316.609 263.397ZM244.085 250.145 236.15 243.033 246.6 240.952Z" fill="#0432FF" fill-rule="nonzero" fill-opacity="1" transform="matrix(1.00005 0 0 1 456.292 267.87)"/><path d="M149.747 440.325 186.746 468.466 184.823 470.994 147.823 442.854ZM187.406 464.975 192.107 474.538 181.636 472.561Z" fill="#FF0000" fill-rule="nonzero" fill-opacity="1" transform="matrix(1.00005 0 0 1 456.292 267.87)"/><path d="M106.956 434.177 106.956 469.104 103.779 469.104 103.779 434.177ZM110.133 467.516 105.367 477.047 100.602 467.516Z" fill="#0432FF" fill-rule="nonzero" fill-opacity="1" transform="matrix(1.00005 0 0 1 456.292 267.87)"/><path d="M107.485 236.15 107.485 410.81 104.308 410.81 104.308 236.15ZM110.662 409.222 105.897 418.753 101.131 409.222Z" fill="#0432FF" fill-rule="nonzero" fill-opacity="1" transform="matrix(1.00005 0 0 1 456.292 267.87)"/><path d="M1.01931-1.21827 8.32894 4.89757 6.29032 7.3341-1.01931 1.21827ZM10.7655 6.93619 18.0752 13.052 16.0365 15.4886 8.7269 9.37271ZM20.5117 15.0907 27.8214 21.2065 25.7827 23.6431 18.4731 17.5272ZM30.2579 23.2451 37.5675 29.3609 35.5289 31.7975 28.2193 25.6817ZM40.0041 31.3996 47.3137 37.5154 45.2751 39.952 37.9655 33.8361ZM49.7503 39.554 57.0598 45.6699 55.0213 48.1064 47.7117 41.9906ZM59.4965 47.7085 66.8061 53.8242 64.7675 56.2609 57.458 50.1451ZM69.2427 55.8627 76.5523 61.9788 74.5138 64.4154 67.2042 58.2994ZM78.989 64.0173 86.2985 70.1333 84.26 72.57 76.9504 66.454ZM88.7352 72.1719 96.0447 78.2879 94.0062 80.7241 86.6967 74.6085ZM98.4814 80.3264 105.791 86.442 103.752 88.8787 96.4429 82.7631ZM108.228 88.481 115.537 94.5966 113.499 97.0332 106.189 90.9172ZM117.974 96.6351 125.283 102.751 123.245 105.188 115.935 99.0718ZM127.72 104.79 135.03 110.906 132.991 113.342 125.681 107.226ZM137.466 112.944 144.776 119.06 142.737 121.496 135.427 115.381ZM147.212 121.099 150.242 123.633 148.203 126.07 145.173 123.535ZM151.061 120.177 155.313 129.948 144.946 127.487Z" fill="#0432FF" fill-rule="nonzero" fill-opacity="1" transform="matrix(-1.00005 0 0 1 772.584 547.967)"/><path d="M330.928 425.705 330.928 460.761 327.751 460.761 327.751 425.705ZM334.104 459.173 329.339 468.704 324.574 459.173Z" fill="#FF0000" fill-rule="nonzero" fill-opacity="1" transform="matrix(1.00005 0 0 1 456.292 267.87)"/><path d="M577.667 358.99 577.667 461.047 574.49 461.047 574.49 358.99ZM580.844 459.458 576.079 468.989 571.313 459.458Z" fill="#FF0000" fill-rule="nonzero" fill-opacity="1" transform="matrix(1.00005 0 0 1 456.292 267.87)"/><path d="M0.265051-1.56618 9.66213 0.0241245 9.13206 3.15649-0.265051 1.56618ZM12.7945 0.554227 22.1916 2.14453 21.6615 5.2769 12.2644 3.68659ZM25.3239 2.67464 34.7211 4.26494 34.191 7.39732 24.7939 5.80701ZM35.3813 1.15461 43.9833 7.44349 33.791 10.5517Z" fill="#0432FF" fill-rule="nonzero" fill-opacity="1" transform="matrix(-1.00005 0 0 1 675.545 699.399)"/><path d="M0.820917-1.35988 8.98021 3.56561 7.33838 6.2854-0.820917 1.35988ZM11.7 5.20744 19.8593 10.1329 18.2174 12.8527 10.0581 7.92722ZM22.579 11.7748 30.7383 16.7002 29.0965 19.42 20.9372 14.4945ZM33.4581 18.3421 41.6173 23.2676 39.9755 25.9873 31.8162 21.0619ZM42.3731 20.0129 48.0696 29.0181 37.4476 28.1722Z" fill="#0432FF" fill-rule="nonzero" fill-opacity="1" transform="matrix(-1.00005 0 0 1 679.632 660.747)"/><path d="M330.928 392.348 330.928 413.615 327.751 413.615 327.751 392.348ZM334.104 412.026 329.339 421.557 324.574 412.027Z" fill="#FF0000" fill-rule="nonzero" fill-opacity="1" transform="matrix(1.00005 0 0 1 456.292 267.87)"/><path d="M1.01671-1.22044 25.2141 18.9375 23.1807 21.3784-1.01671 1.22044ZM26.0271 15.4799 30.2996 25.2415 19.9268 22.8025Z" fill="#0432FF" fill-rule="nonzero" fill-opacity="1" transform="matrix(-1.00005 0 0 1 836.6 625.801)"/><path d="M445.826 311.866 445.826 333.133 442.649 333.133 442.649 311.866ZM449.002 331.545 444.237 341.076 439.472 331.545Z" fill="#FF0000" fill-rule="nonzero" fill-opacity="1" transform="matrix(1.00005 0 0 1 456.292 267.87)"/><path d="M231.218 221.896 240.496 224.073 239.771 227.166 230.492 224.989ZM243.59 224.799 252.868 226.977 252.142 230.069 242.864 227.892ZM255.961 227.702 265.24 229.88 264.514 232.972 255.235 230.795ZM268.332 230.605 277.611 232.782 276.886 235.876 267.607 233.698ZM280.704 233.508 289.983 235.686 289.257 238.779 279.978 236.602ZM293.076 236.411 302.354 238.589 301.629 241.682 292.35 239.505ZM303.776 235.659 311.966 242.476 301.598 244.938Z" fill="#FF0000" fill-rule="nonzero" fill-opacity="1" transform="matrix(1.00005 0 0 1 456.292 267.87)"/><path d="M347.661 189.825 362.245 215.287 359.489 216.866 344.904 191.404ZM364.212 212.33 364.815 222.968 355.942 217.067Z" fill="#FF0000" fill-rule="nonzero" fill-opacity="1" transform="matrix(1.00005 0 0 1 456.292 267.87)"/><path d="M126.547 113.31 126.547 128.408 123.37 128.408 123.37 113.31ZM129.724 126.819 124.958 136.35 120.193 126.819Z" fill="#000000" fill-rule="nonzero" fill-opacity="1" transform="matrix(1.00005 0 0 1 456.292 267.87)"/><path d="M0.947835-1.27467 18.5549 11.8178 16.6593 14.3672-0.947835 1.27467ZM19.176 8.32068 23.9804 17.8317 13.4889 15.9687Z" fill="#0432FF" fill-rule="nonzero" fill-opacity="1" transform="matrix(-1.00005 0 0 1 695.784 453.719)"/><path d="M196.479 156.304 226.57 167.863 225.43 170.828 195.339 159.269ZM226.226 164.327 233.414 172.194 222.808 173.224Z" fill="#FF0000" fill-rule="nonzero" fill-opacity="1" transform="matrix(1.00005 0 0 1 456.292 267.87)"/><path d="M127.076 144.549 127.076 193.523 123.899 193.523 123.899 144.549ZM130.253 191.934 125.488 201.465 120.722 191.934Z" fill="#0432FF" fill-rule="nonzero" fill-opacity="1" transform="matrix(1.00005 0 0 1 456.292 267.87)"/><path d="M50.301 95.3071 200.674 95.3071 200.674 122.84 50.301 122.84Z" stroke="#000000" stroke-width="1.05897" stroke-linecap="butt" stroke-linejoin="miter" stroke-miterlimit="8" stroke-opacity="1" fill="#FFFFFF" fill-rule="nonzero" fill-opacity="1" transform="matrix(1.00005 0 0 1 456.292 267.87)"/><text fill="#000000" fill-opacity="1" font-family="Arial,Arial_MSFontService,sans-serif" font-style="normal" font-variant="normal" font-weight="700" font-stretch="normal" font-size="28" text-anchor="start" direction="ltr" writing-mode="lr-tb" unicode-bidi="normal" text-decoration="none" transform="matrix(0.529511 0 0 0.529484 529.778 383)">Ansatz selected</text><path d="M233.502 172.082 397.643 172.082 397.643 192.732 233.502 192.732Z" stroke="#000000" stroke-width="1.05897" stroke-linecap="butt" stroke-linejoin="miter" stroke-miterlimit="8" stroke-opacity="1" fill="#FFFFFF" fill-rule="nonzero" fill-opacity="1" transform="matrix(1.00005 0 0 1 456.292 267.87)"/><text fill="#000000" fill-opacity="1" font-family="Arial,Arial_MSFontService,sans-serif" font-style="normal" font-variant="normal" font-weight="700" font-stretch="normal" font-size="28" text-anchor="start" direction="ltr" writing-mode="lr-tb" unicode-bidi="normal" text-decoration="none" transform="matrix(0.529511 0 0 0.529484 720.264 456)">Increase shots</text><path d="M41.8292 482.728C41.8292 478.431 45.313 474.947 49.6104 474.947L160.595 474.947C164.892 474.947 168.376 478.431 168.376 482.728L168.376 510.054C168.376 514.351 164.892 517.835 160.595 517.835L49.6104 517.835C45.313 517.835 41.8292 514.351 41.8292 510.054Z" fill="#0432FF" fill-rule="evenodd" fill-opacity="1" transform="matrix(1.00005 0 0 1 456.292 267.87)"/><text fill="#FFFFFF" fill-opacity="1" font-family="Arial,Arial_MSFontService,sans-serif" font-style="normal" font-variant="normal" font-weight="700" font-stretch="normal" font-size="28" text-anchor="start" direction="ltr" writing-mode="lr-tb" unicode-bidi="normal" text-decoration="none" transform="matrix(0.529511 0 0 0.529484 525.361 761)">C</text><text fill="#FFFFFF" fill-opacity="1" font-family="Arial,Arial_MSFontService,sans-serif" font-style="normal" font-variant="normal" font-weight="700" font-stretch="normal" font-size="28" text-anchor="start" direction="ltr" writing-mode="lr-tb" unicode-bidi="normal" text-decoration="none" transform="matrix(0.529511 0 0 0.529484 536.083 761)">alculation </text><text fill="#FFFFFF" fill-opacity="1" font-family="Arial,Arial_MSFontService,sans-serif" font-style="normal" font-variant="normal" font-weight="700" font-stretch="normal" font-size="28" text-anchor="start" direction="ltr" writing-mode="lr-tb" unicode-bidi="normal" text-decoration="none" transform="matrix(0.529511 0 0 0.529484 523.227 778)">succeeded</text><path d="M291.746 474.999C291.746 471.169 294.851 468.064 298.68 468.064L587.145 468.064C590.978 468.064 594.081 471.169 594.081 474.999L594.081 504.017C594.081 507.847 590.978 510.952 587.145 510.952L298.68 510.952C294.851 510.952 291.746 507.847 291.746 504.017Z" fill="#FF0000" fill-rule="evenodd" fill-opacity="1" transform="matrix(1.00005 0 0 1 456.292 267.87)"/><text fill="#FFFFFF" fill-opacity="1" font-family="Arial,Arial_MSFontService,sans-serif" font-style="normal" font-variant="normal" font-weight="700" font-stretch="normal" font-size="28" text-anchor="start" direction="ltr" writing-mode="lr-tb" unicode-bidi="normal" text-decoration="none" transform="matrix(0.529511 0 0 0.529484 816.986 754)">Critically high error noise </text><text fill="#FFFFFF" fill-opacity="1" font-family="Arial,Arial_MSFontService,sans-serif" font-style="normal" font-variant="normal" font-weight="700" font-stretch="normal" font-size="28" text-anchor="start" direction="ltr" writing-mode="lr-tb" unicode-bidi="normal" text-decoration="none" transform="matrix(0.529511 0 0 0.529484 792.035 771)">or optimizer is sensitive to noise</text><path d="M41.2998 135.018 210.735 135.018 210.735 174.73 41.2998 174.73Z" stroke="#000000" stroke-width="1.05897" stroke-linecap="butt" stroke-linejoin="miter" stroke-miterlimit="8" stroke-opacity="1" fill="#FFFFFF" fill-rule="nonzero" fill-opacity="1" transform="matrix(1.00005 0 0 1 456.292 267.87)"/><text fill="#000000" fill-opacity="1" font-family="Arial,Arial_MSFontService,sans-serif" font-style="normal" font-variant="normal" font-weight="700" font-stretch="normal" font-size="28" text-anchor="start" direction="ltr" writing-mode="lr-tb" unicode-bidi="normal" text-decoration="none" transform="matrix(0.529511 0 0 0.529484 549.877 420)">VQE under </text><text fill="#000000" fill-opacity="1" font-family="Arial,Arial_MSFontService,sans-serif" font-style="normal" font-variant="normal" font-weight="700" font-stretch="normal" font-size="28" text-anchor="start" direction="ltr" writing-mode="lr-tb" unicode-bidi="normal" text-decoration="none" transform="matrix(0.529511 0 0 0.529484 536.306 437)">sampling error</text><path d="M311.866 222.383 639.617 222.383 639.617 244.092 311.866 244.092Z" stroke="#000000" stroke-width="1.05897" stroke-linecap="butt" stroke-linejoin="miter" stroke-miterlimit="8" stroke-opacity="1" fill="#FFFFFF" fill-rule="nonzero" fill-opacity="1" transform="matrix(1.00005 0 0 1 456.292 267.87)"/><text fill="#000000" fill-opacity="1" font-family="Arial,Arial_MSFontService,sans-serif" font-style="normal" font-variant="normal" font-weight="700" font-stretch="normal" font-size="28" text-anchor="start" direction="ltr" writing-mode="lr-tb" unicode-bidi="normal" text-decoration="none" transform="matrix(0.529511 0 0 0.529484 833.224 507)">(Re)consider the initial state</text><path d="M311.866 244.092 639.617 244.092 639.617 281.156 311.866 281.156Z" stroke="#000000" stroke-width="1.05897" stroke-linecap="butt" stroke-linejoin="miter" stroke-miterlimit="8" stroke-opacity="1" fill="#FFFFFF" fill-rule="nonzero" fill-opacity="1" transform="matrix(1.00005 0 0 1 456.292 267.87)"/><text fill="#000000" fill-opacity="1" font-family="Arial,Arial_MSFontService,sans-serif" font-style="normal" font-variant="normal" font-weight="700" font-stretch="normal" font-size="28" text-anchor="start" direction="ltr" writing-mode="lr-tb" unicode-bidi="normal" text-decoration="none" transform="matrix(0.529511 0 0 0.529484 806.47 527)">Change optimizer to noise</text><text fill="#000000" fill-opacity="1" font-family="Arial,Arial_MSFontService,sans-serif" font-style="normal" font-variant="normal" font-weight="700" font-stretch="normal" font-size="28" text-anchor="start" direction="ltr" writing-mode="lr-tb" unicode-bidi="normal" text-decoration="none" transform="matrix(0.529511 0 0 0.529484 991.135 527)">-</text><text fill="#000000" fill-opacity="1" font-family="Arial,Arial_MSFontService,sans-serif" font-style="normal" font-variant="normal" font-weight="700" font-stretch="normal" font-size="28" text-anchor="start" direction="ltr" writing-mode="lr-tb" unicode-bidi="normal" text-decoration="none" transform="matrix(0.529511 0 0 0.529484 996.033 527)">resistant one</text><text fill="#000000" fill-opacity="1" font-family="Arial,Arial_MSFontService,sans-serif" font-style="normal" font-variant="normal" font-weight="700" font-stretch="normal" font-size="28" text-anchor="start" direction="ltr" writing-mode="lr-tb" unicode-bidi="normal" text-decoration="none" transform="matrix(0.529511 0 0 0.529484 867.173 544)">(</text><text fill="#000000" fill-opacity="1" font-family="Arial,Arial_MSFontService,sans-serif" font-style="normal" font-variant="normal" font-weight="700" font-stretch="normal" font-size="28" text-anchor="start" direction="ltr" writing-mode="lr-tb" unicode-bidi="normal" text-decoration="none" transform="matrix(0.529511 0 0 0.529484 872.071 544)">ex. COBYLA </text><text fill="#000000" fill-opacity="1" font-family="Arial,Arial_MSFontService,sans-serif" font-style="normal" font-variant="normal" font-weight="700" font-stretch="normal" font-size="28" text-anchor="start" direction="ltr" writing-mode="lr-tb" unicode-bidi="normal" text-decoration="none" transform="matrix(0.529511 0 0 0.529484 962.861 544)">→</text><text fill="#000000" fill-opacity="1" font-family="Arial,Arial_MSFontService,sans-serif" font-style="normal" font-variant="normal" font-weight="700" font-stretch="normal" font-size="28" text-anchor="start" direction="ltr" writing-mode="lr-tb" unicode-bidi="normal" text-decoration="none" transform="matrix(0.529511 0 0 0.529484 981.791 544)">SPSA)</text><path d="M311.866 281.156 639.617 281.156 639.617 316.102 311.866 316.102Z" stroke="#000000" stroke-width="1.05897" stroke-linecap="butt" stroke-linejoin="miter" stroke-miterlimit="8" stroke-opacity="1" fill="#FFFFFF" fill-rule="nonzero" fill-opacity="1" transform="matrix(1.00005 0 0 1 456.292 267.87)"/><text fill="#000000" fill-opacity="1" font-family="Arial,Arial_MSFontService,sans-serif" font-style="normal" font-variant="normal" font-weight="700" font-stretch="normal" font-size="28" text-anchor="start" direction="ltr" writing-mode="lr-tb" unicode-bidi="normal" text-decoration="none" transform="matrix(0.529511 0 0 0.529484 813.963 563)">If you know the nature of the solution, </text><text fill="#000000" fill-opacity="1" font-family="Arial,Arial_MSFontService,sans-serif" font-style="normal" font-variant="normal" font-weight="700" font-stretch="normal" font-size="28" text-anchor="start" direction="ltr" writing-mode="lr-tb" unicode-bidi="normal" text-decoration="none" transform="matrix(0.529511 0 0 0.529484 882.349 580)">use it to deal with it</text><path d="M312.396 339.399 603.082 339.399 603.082 363.756 312.396 363.756Z" stroke="#000000" stroke-width="1.05897" stroke-linecap="butt" stroke-linejoin="miter" stroke-miterlimit="8" stroke-opacity="1" fill="#FFFFFF" fill-rule="nonzero" fill-opacity="1" transform="matrix(1.00005 0 0 1 456.292 267.87)"/><text fill="#000000" fill-opacity="1" font-family="Arial,Arial_MSFontService,sans-serif" font-style="normal" font-variant="normal" font-weight="700" font-stretch="normal" font-size="28" text-anchor="start" direction="ltr" writing-mode="lr-tb" unicode-bidi="normal" text-decoration="none" transform="matrix(0.529511 0 0 0.529484 798.368 626)">Use high</text><text fill="#000000" fill-opacity="1" font-family="Arial,Arial_MSFontService,sans-serif" font-style="normal" font-variant="normal" font-weight="700" font-stretch="normal" font-size="28" text-anchor="start" direction="ltr" writing-mode="lr-tb" unicode-bidi="normal" text-decoration="none" transform="matrix(0.529511 0 0 0.529484 860.718 626)">-</text><text fill="#000000" fill-opacity="1" font-family="Arial,Arial_MSFontService,sans-serif" font-style="normal" font-variant="normal" font-weight="700" font-stretch="normal" font-size="28" text-anchor="start" direction="ltr" writing-mode="lr-tb" unicode-bidi="normal" text-decoration="none" transform="matrix(0.529511 0 0 0.529484 865.616 626)">cost optimizer (ex</text><text fill="#000000" fill-opacity="1" font-family="Arial,Arial_MSFontService,sans-serif" font-style="normal" font-variant="normal" font-weight="700" font-stretch="normal" font-size="28" text-anchor="start" direction="ltr" writing-mode="lr-tb" unicode-bidi="normal" text-decoration="none" transform="matrix(0.529511 0 0 0.529484 991.241 626)">. Adam)</text><path d="M18.0025 202.792 239.327 202.792 239.327 245.151 18.0025 245.151Z" stroke="#000000" stroke-width="1.05897" stroke-linecap="butt" stroke-linejoin="miter" stroke-miterlimit="8" stroke-opacity="1" fill="#FFFFFF" fill-rule="nonzero" fill-opacity="1" transform="matrix(1.00005 0 0 1 456.292 267.87)"/><text fill="#000000" fill-opacity="1" font-family="Arial,Arial_MSFontService,sans-serif" font-style="normal" font-variant="normal" font-weight="700" font-stretch="normal" font-size="28" text-anchor="start" direction="ltr" writing-mode="lr-tb" unicode-bidi="normal" text-decoration="none" transform="matrix(0.529511 0 0 0.529484 554.581 489)">VQE under </text><text fill="#000000" fill-opacity="1" font-family="Arial,Arial_MSFontService,sans-serif" font-style="normal" font-variant="normal" font-weight="700" font-stretch="normal" font-size="28" text-anchor="start" direction="ltr" writing-mode="lr-tb" unicode-bidi="normal" text-decoration="none" transform="matrix(0.529511 0 0 0.529484 504.542 506)">sampling error and noise</text><path d="M222.913 381.229 506.187 381.229 506.187 400.29 222.913 400.29Z" stroke="#000000" stroke-width="1.05897" stroke-linecap="butt" stroke-linejoin="miter" stroke-miterlimit="8" stroke-opacity="1" fill="#FFFFFF" fill-rule="nonzero" fill-opacity="1" transform="matrix(1.00005 0 0 1 456.292 267.87)"/><text fill="#000000" fill-opacity="1" font-family="Arial,Arial_MSFontService,sans-serif" font-style="normal" font-variant="normal" font-weight="700" font-stretch="normal" font-size="28" text-anchor="start" direction="ltr" writing-mode="lr-tb" unicode-bidi="normal" text-decoration="none" transform="matrix(0.529511 0 0 0.529484 711.201 664)">Calculation costs are acceptable?</text><path d="M214.971 420.41 549.604 420.41 549.604 440.001 214.971 440.001Z" stroke="#000000" stroke-width="1.05897" stroke-linecap="butt" stroke-linejoin="miter" stroke-miterlimit="8" stroke-opacity="1" fill="#FFFFFF" fill-rule="nonzero" fill-opacity="1" transform="matrix(1.00005 0 0 1 456.292 267.87)"/><text fill="#000000" fill-opacity="1" font-family="Arial,Arial_MSFontService,sans-serif" font-style="normal" font-variant="normal" font-weight="700" font-stretch="normal" font-size="28" text-anchor="start" direction="ltr" writing-mode="lr-tb" unicode-bidi="normal" text-decoration="none" transform="matrix(0.529511 0 0 0.529484 697.353 704)">Use low</text><text fill="#000000" fill-opacity="1" font-family="Arial,Arial_MSFontService,sans-serif" font-style="normal" font-variant="normal" font-weight="700" font-stretch="normal" font-size="28" text-anchor="start" direction="ltr" writing-mode="lr-tb" unicode-bidi="normal" text-decoration="none" transform="matrix(0.529511 0 0 0.529484 753.217 704)">-</text><text fill="#000000" fill-opacity="1" font-family="Arial,Arial_MSFontService,sans-serif" font-style="normal" font-variant="normal" font-weight="700" font-stretch="normal" font-size="28" text-anchor="start" direction="ltr" writing-mode="lr-tb" unicode-bidi="normal" text-decoration="none" transform="matrix(0.529511 0 0 0.529484 758.115 704)">cost/high</text><text fill="#000000" fill-opacity="1" font-family="Arial,Arial_MSFontService,sans-serif" font-style="normal" font-variant="normal" font-weight="700" font-stretch="normal" font-size="28" text-anchor="start" direction="ltr" writing-mode="lr-tb" unicode-bidi="normal" text-decoration="none" transform="matrix(0.529511 0 0 0.529484 823.642 704)">-</text><text fill="#000000" fill-opacity="1" font-family="Arial,Arial_MSFontService,sans-serif" font-style="normal" font-variant="normal" font-weight="700" font-stretch="normal" font-size="28" text-anchor="start" direction="ltr" writing-mode="lr-tb" unicode-bidi="normal" text-decoration="none" transform="matrix(0.529511 0 0 0.529484 828.54 704)">cost optimizer together</text><path d="M35.4754 409.291 177.377 409.291 177.377 447.414 35.4754 447.414Z" stroke="#000000" stroke-width="1.05897" stroke-linecap="butt" stroke-linejoin="miter" stroke-miterlimit="8" stroke-opacity="1" fill="#FFFFFF" fill-rule="nonzero" fill-opacity="1" transform="matrix(1.00005 0 0 1 456.292 267.87)"/><text fill="#000000" fill-opacity="1" font-family="Arial,Arial_MSFontService,sans-serif" font-style="normal" font-variant="normal" font-weight="700" font-stretch="normal" font-size="28" text-anchor="start" direction="ltr" writing-mode="lr-tb" unicode-bidi="normal" text-decoration="none" transform="matrix(0.529511 0 0 0.529484 535.351 694)">Calculate </text><text fill="#000000" fill-opacity="1" font-family="Arial,Arial_MSFontService,sans-serif" font-style="normal" font-variant="normal" font-weight="700" font-stretch="normal" font-size="28" text-anchor="start" direction="ltr" writing-mode="lr-tb" unicode-bidi="normal" text-decoration="none" transform="matrix(0.529511 0 0 0.529484 512.783 711)">on a real device</text><path d="M193.262 480.408 198.722 480.408 200.41 474.947 202.097 480.408 207.558 480.408 203.14 483.783 204.827 489.243 200.41 485.868 195.992 489.243 197.68 483.783Z" stroke="#FF0000" stroke-width="2.11794" stroke-linecap="round" stroke-linejoin="miter" stroke-miterlimit="8" stroke-opacity="1" fill="#FF0000" fill-rule="evenodd" fill-opacity="1" transform="matrix(1.00005 0 0 1 456.292 267.87)"/><path d="M293.334 222.02 298.997 222.02 300.747 216.559 302.497 222.02 308.16 222.02 303.578 225.394 305.328 230.855 300.747 227.48 296.166 230.855 297.916 225.394Z" stroke="#FF0000" stroke-width="2.11794" stroke-linecap="round" stroke-linejoin="miter" stroke-miterlimit="8" stroke-opacity="1" fill="#FF0000" fill-rule="evenodd" fill-opacity="1" transform="matrix(1.00005 0 0 1 456.292 267.87)"/><path d="M447.943 164.67 471.248 164.67 471.248 167.846 447.943 167.846ZM469.659 161.493 479.19 166.258 469.659 171.023Z" fill="#0432FF" fill-rule="nonzero" fill-opacity="1" transform="matrix(1.00005 0 0 1 456.292 267.87)"/><path d="M447.943 190.085 471.529 190.085 471.529 193.262 447.943 193.262ZM469.94 186.908 479.471 191.673 469.94 196.439Z" fill="#FF0000" fill-rule="nonzero" fill-opacity="1" transform="matrix(1.00005 0 0 1 456.292 267.87)"/><text fill="#000000" fill-opacity="1" font-family="Arial,Arial_MSFontService,sans-serif" font-style="normal" font-variant="normal" font-weight="700" font-stretch="normal" font-size="24" text-anchor="start" direction="ltr" writing-mode="lr-tb" unicode-bidi="normal" text-decoration="none" transform="matrix(0.529511 0 0 0.529484 509.311 377)">(1)</text><text fill="#000000" fill-opacity="1" font-family="Arial,Arial_MSFontService,sans-serif" font-style="normal" font-variant="normal" font-weight="700" font-stretch="normal" font-size="24" text-anchor="start" direction="ltr" writing-mode="lr-tb" unicode-bidi="normal" text-decoration="none" transform="matrix(0.529511 0 0 0.529484 501.147 416)">(2)</text><text fill="#000000" fill-opacity="1" font-family="Arial,Arial_MSFontService,sans-serif" font-style="normal" font-variant="normal" font-weight="700" font-stretch="normal" font-size="24" text-anchor="start" direction="ltr" writing-mode="lr-tb" unicode-bidi="normal" text-decoration="none" transform="matrix(0.529511 0 0 0.529484 693.451 454)">(3)</text><text fill="#000000" fill-opacity="1" font-family="Arial,Arial_MSFontService,sans-serif" font-style="normal" font-variant="normal" font-weight="700" font-stretch="normal" font-size="24" text-anchor="start" direction="ltr" writing-mode="lr-tb" unicode-bidi="normal" text-decoration="none" transform="matrix(0.529511 0 0 0.529484 477.461 484)">(4)</text><text fill="#000000" fill-opacity="1" font-family="Arial,Arial_MSFontService,sans-serif" font-style="normal" font-variant="normal" font-weight="700" font-stretch="normal" font-size="24" text-anchor="start" direction="ltr" writing-mode="lr-tb" unicode-bidi="normal" text-decoration="none" transform="matrix(0.529511 0 0 0.529484 771.486 505)">(5</text><text fill="#000000" fill-opacity="1" font-family="Arial,Arial_MSFontService,sans-serif" font-style="normal" font-variant="normal" font-weight="700" font-stretch="normal" font-size="24" text-anchor="start" direction="ltr" writing-mode="lr-tb" unicode-bidi="normal" text-decoration="none" transform="matrix(0.529511 0 0 0.529484 782.738 505)">-</text><text fill="#000000" fill-opacity="1" font-family="Arial,Arial_MSFontService,sans-serif" font-style="normal" font-variant="normal" font-weight="700" font-stretch="normal" font-size="24" text-anchor="start" direction="ltr" writing-mode="lr-tb" unicode-bidi="normal" text-decoration="none" transform="matrix(0.529511 0 0 0.529484 786.974 505)">1)</text><text fill="#000000" fill-opacity="1" font-family="Arial,Arial_MSFontService,sans-serif" font-style="normal" font-variant="normal" font-weight="700" font-stretch="normal" font-size="24" text-anchor="start" direction="ltr" writing-mode="lr-tb" unicode-bidi="normal" text-decoration="none" transform="matrix(0.529511 0 0 0.529484 771.456 525)">(5</text><text fill="#000000" fill-opacity="1" font-family="Arial,Arial_MSFontService,sans-serif" font-style="normal" font-variant="normal" font-weight="700" font-stretch="normal" font-size="24" text-anchor="start" direction="ltr" writing-mode="lr-tb" unicode-bidi="normal" text-decoration="none" transform="matrix(0.529511 0 0 0.529484 782.708 525)">-</text><text fill="#000000" fill-opacity="1" font-family="Arial,Arial_MSFontService,sans-serif" font-style="normal" font-variant="normal" font-weight="700" font-stretch="normal" font-size="24" text-anchor="start" direction="ltr" writing-mode="lr-tb" unicode-bidi="normal" text-decoration="none" transform="matrix(0.529511 0 0 0.529484 786.944 525)">2)</text><text fill="#000000" fill-opacity="1" font-family="Arial,Arial_MSFontService,sans-serif" font-style="normal" font-variant="normal" font-weight="700" font-stretch="normal" font-size="24" text-anchor="start" direction="ltr" writing-mode="lr-tb" unicode-bidi="normal" text-decoration="none" transform="matrix(0.529511 0 0 0.529484 771.718 563)">(5</text><text fill="#000000" fill-opacity="1" font-family="Arial,Arial_MSFontService,sans-serif" font-style="normal" font-variant="normal" font-weight="700" font-stretch="normal" font-size="24" text-anchor="start" direction="ltr" writing-mode="lr-tb" unicode-bidi="normal" text-decoration="none" transform="matrix(0.529511 0 0 0.529484 782.97 563)">-</text><text fill="#000000" fill-opacity="1" font-family="Arial,Arial_MSFontService,sans-serif" font-style="normal" font-variant="normal" font-weight="700" font-stretch="normal" font-size="24" text-anchor="start" direction="ltr" writing-mode="lr-tb" unicode-bidi="normal" text-decoration="none" transform="matrix(0.529511 0 0 0.529484 787.206 563)">3)</text><text fill="#000000" fill-opacity="1" font-family="Arial,Arial_MSFontService,sans-serif" font-style="normal" font-variant="normal" font-weight="700" font-stretch="normal" font-size="24" text-anchor="start" direction="ltr" writing-mode="lr-tb" unicode-bidi="normal" text-decoration="none" transform="matrix(0.529511 0 0 0.529484 772.306 622)">(6)</text><text fill="#000000" fill-opacity="1" font-family="Arial,Arial_MSFontService,sans-serif" font-style="normal" font-variant="normal" font-weight="700" font-stretch="normal" font-size="24" text-anchor="start" direction="ltr" writing-mode="lr-tb" unicode-bidi="normal" text-decoration="none" transform="matrix(0.529511 0 0 0.529484 682.605 663)">(7)</text><text fill="#000000" fill-opacity="1" font-family="Arial,Arial_MSFontService,sans-serif" font-style="normal" font-variant="normal" font-weight="700" font-stretch="normal" font-size="24" text-anchor="start" direction="ltr" writing-mode="lr-tb" unicode-bidi="normal" text-decoration="none" transform="matrix(0.529511 0 0 0.529484 674.676 702)">(8)</text><text fill="#000000" fill-opacity="1" font-family="Arial,Arial_MSFontService,sans-serif" font-style="normal" font-variant="normal" font-weight="700" font-stretch="normal" font-size="24" text-anchor="start" direction="ltr" writing-mode="lr-tb" unicode-bidi="normal" text-decoration="none" transform="matrix(0.529511 0 0 0.529484 495.272 691)">(9)</text><text fill="#FFFFFF" fill-opacity="1" font-family="Arial,Arial_MSFontService,sans-serif" font-style="normal" font-variant="normal" font-weight="700" font-stretch="normal" font-size="24" text-anchor="start" direction="ltr" writing-mode="lr-tb" unicode-bidi="normal" text-decoration="none" transform="matrix(0.529511 0 0 0.529484 501.398 757)">(A)</text><text fill="#FFFFFF" fill-opacity="1" font-family="Arial,Arial_MSFontService,sans-serif" font-style="normal" font-variant="normal" font-weight="700" font-stretch="normal" font-size="24" text-anchor="start" direction="ltr" writing-mode="lr-tb" unicode-bidi="normal" text-decoration="none" transform="matrix(0.529511 0 0 0.529484 751.836 750)">(B)</text><text fill="#0432FF" fill-opacity="1" font-family="Arial,Arial_MSFontService,sans-serif" font-style="normal" font-variant="normal" font-weight="700" font-stretch="normal" font-size="32" text-anchor="start" direction="ltr" writing-mode="lr-tb" unicode-bidi="normal" text-decoration="none" transform="matrix(0.529511 0 0 0.529484 941.415 440)">Success</text><text fill="#0432FF" fill-opacity="1" font-family="Arial,Arial_MSFontService,sans-serif" font-style="normal" font-variant="normal" font-weight="700" font-stretch="normal" font-size="32" text-anchor="start" direction="ltr" writing-mode="lr-tb" unicode-bidi="normal" text-decoration="none" transform="matrix(0.529511 0 0 0.529484 1014.75 440)">/ YES</text><text fill="#FF0000" fill-opacity="1" font-family="Arial,Arial_MSFontService,sans-serif" font-style="normal" font-variant="normal" font-weight="700" font-stretch="normal" font-size="32" text-anchor="start" direction="ltr" writing-mode="lr-tb" unicode-bidi="normal" text-decoration="none" transform="matrix(0.529511 0 0 0.529484 941.696 466)">Failure</text><text fill="#FF0000" fill-opacity="1" font-family="Arial,Arial_MSFontService,sans-serif" font-style="normal" font-variant="normal" font-weight="700" font-stretch="normal" font-size="32" text-anchor="start" direction="ltr" writing-mode="lr-tb" unicode-bidi="normal" text-decoration="none" transform="matrix(0.529511 0 0 0.529484 1002.06 466)">/ NO</text></g></g></g></g></g></svg>